<?xml version="1.0" encoding="utf-8"?>
<!-- Generator: Adobe Illustrator 22.0.0, SVG Export Plug-In . SVG Version: 6.00 Build 0)  -->
<svg version="1.2" baseProfile="tiny" xmlns="http://www.w3.org/2000/svg" xmlns:xlink="http://www.w3.org/1999/xlink" x="0px"
	 y="0px" viewBox="0 0 2671.2 454.2" xml:space="preserve">
<g id="Layer_1">
	<path fill="#FFFFFF" stroke="#1DA8E0" stroke-width="10" d="M427.7,98.1c5.5,5.5,5.5,14.5,0,20l-80.2,80.2c-5.5,5.5-14.5,5.5-20,0
		l-80.2-80.2c-5.5-5.5-5.5-14.5,0-20L327.5,18c5.5-5.5,14.5-5.5,20,0L427.7,98.1z"/>
	<path fill="#FFFFFF" stroke="#E20F7E" stroke-width="10" d="M16.1,118.2c-5.5-5.5-5.5-14.5,0-20L96.3,18c5.5-5.5,14.5-5.5,20,0
		l80.2,80.2c5.5,5.5,5.5,14.5,0,20l-80.2,80.2c-5.5,5.5-14.5,5.5-20,0L16.1,118.2z"/>
	<path fill="#FFFFFF" stroke="#BDD038" stroke-width="10" d="M310.8,214.6c5.5,5.5,5.5,14.5,0,20l-80.2,80.2c-5.5,5.5-14.5,5.5-20,0
		l-80.2-80.2c-5.5-5.5-5.5-14.5,0-20l80.2-80.2c5.5-5.5,14.5-5.5,20,0L310.8,214.6z"/>
	<path fill="#FFFFFF" stroke="#FEC831" stroke-width="10" d="M427.7,329.4c5.5,5.5,5.5,14.5,0,20l-80.2,80.2c-5.5,5.5-14.5,5.5-20,0
		l-80.2-80.2c-5.5-5.5-5.5-14.5,0-20l80.2-80.2c5.5-5.5,14.5-5.5,20,0L427.7,329.4z"/>
	<g>
		<path d="M570.3,221.9c0,2.9-0.4,5.8-1.3,8.6c-0.9,2.9-2.4,5.5-4.6,7.7c-2.2,2.3-5.2,4.1-9.1,5.5c-3.8,1.4-8.7,2.1-14.6,2.1
			c-4.2,0-8-0.2-11.2-0.5c-3.2-0.4-6.1-0.7-8.8-1.1c-1-0.2-1.7-0.4-1.9-0.7c-0.2-0.3-0.4-0.8-0.4-1.4v-4.8c0-0.6,0.2-1.1,0.6-1.4
			c0.4-0.3,0.9-0.5,1.4-0.5h0.4c1.4,0.2,2.9,0.3,4.6,0.4c1.7,0.1,3.5,0.1,5.3,0.2c1.8,0,3.6,0.1,5.3,0.1c1.7,0,3.3,0.1,4.6,0.1
			c3.6,0,6.6-0.3,8.9-1c2.4-0.7,4.2-1.6,5.6-2.9c1.4-1.2,2.3-2.7,2.9-4.5c0.6-1.8,0.8-3.7,0.8-5.8c0-1.5-0.2-2.9-0.7-4.1
			c-0.5-1.2-1.3-2.5-2.4-3.7c-1.1-1.2-2.6-2.5-4.4-3.8c-1.8-1.3-4.1-2.8-6.8-4.5l-11.6-7.1c-5.5-3.4-9.7-6.7-12.4-10.1
			c-2.8-3.4-4.1-7.5-4.1-12.3c0-7.3,2.5-12.6,7.5-16.1c5-3.4,12.1-5.2,21.3-5.2c1.8,0,3.6,0,5.6,0.1c2,0.1,3.9,0.2,5.8,0.3
			c1.9,0.1,3.7,0.3,5.3,0.5c1.7,0.2,3.1,0.4,4.2,0.5c1.4,0.2,2,0.9,2,2v5.2c0,1.3-0.7,1.9-2,1.9h-0.2c-2.6-0.2-5.9-0.3-9.7-0.5
			c-3.8-0.2-7.5-0.2-11-0.2c-6.2,0-10.7,0.8-13.5,2.4c-2.8,1.6-4.1,4.6-4.1,9c0,2.8,1,5.2,3.1,7.3c2.1,2.1,5.4,4.5,9.9,7.2l11,6.6
			c3.4,2.1,6.3,4.1,8.7,6c2.4,1.9,4.3,3.8,5.9,5.8c1.5,1.9,2.6,3.9,3.2,6C570,217.2,570.3,219.5,570.3,221.9z"/>
		<path d="M635.7,216.6c0,4.4-0.6,8.4-1.7,12c-1.1,3.6-2.8,6.7-5,9.2c-2.2,2.6-5,4.5-8.4,5.9c-3.4,1.4-7.2,2.1-11.6,2.1
			c-4.4,0-8.3-0.7-11.6-2.1c-3.3-1.4-6.1-3.4-8.3-5.9c-2.2-2.6-3.9-5.6-5-9.2c-1.1-3.6-1.7-7.6-1.7-12v-9.1c0-4.4,0.6-8.4,1.7-12
			c1.1-3.6,2.8-6.7,5-9.2c2.2-2.6,5-4.5,8.3-5.9c3.3-1.4,7.2-2.1,11.6-2.1c4.4,0,8.3,0.7,11.6,2.1c3.4,1.4,6.2,3.4,8.4,5.9
			c2.2,2.6,3.9,5.6,5,9.2c1.1,3.6,1.7,7.6,1.7,12V216.6z M625.1,207.5c0-6.2-1.3-11-3.8-14.6c-2.6-3.6-6.7-5.4-12.4-5.4
			c-5.6,0-9.7,1.8-12.2,5.3c-2.6,3.6-3.8,8.5-3.8,14.7v9.1c0,6.2,1.3,11,3.8,14.6c2.5,3.6,6.6,5.4,12.3,5.4c5.6,0,9.7-1.8,12.3-5.3
			c2.6-3.6,3.9-8.5,3.9-14.7V207.5z"/>
		<path d="M690.2,243.7c-0.3,0.4-1,0.7-1.9,0.8c-2,0.4-4.3,0.7-6.9,1c-2.6,0.2-5.3,0.4-8.1,0.4c-4.1,0-7.7-0.7-10.9-2.1
			c-3.2-1.4-5.8-3.4-8-5.9c-2.2-2.5-3.9-5.6-5-9.2c-1.1-3.6-1.7-7.6-1.7-12v-9.4c0-4.4,0.6-8.4,1.7-12c1.1-3.6,2.8-6.7,4.9-9.2
			c2.2-2.5,4.8-4.5,8-5.9c3.2-1.4,6.8-2.1,10.9-2.1c2.8,0,5.5,0.1,8.1,0.4c2.6,0.2,4.9,0.6,6.9,1c1,0.2,1.6,0.4,1.9,0.8
			c0.3,0.4,0.5,1,0.5,1.9v4.3c0,0.6-0.2,1.1-0.6,1.4c-0.4,0.3-0.9,0.4-1.4,0.4h-0.5c-2.6-0.3-5-0.5-7.2-0.7s-4.7-0.2-7.7-0.2
			c-4.8,0-8.5,1.6-11.1,4.9c-2.6,3.2-3.9,8.3-3.9,15.1v9.4c0,6.8,1.3,11.8,3.8,15.1c2.6,3.2,6.3,4.9,11.2,4.9c3,0,5.5-0.1,7.7-0.2
			s4.6-0.3,7.2-0.7h0.5c0.6,0,1,0.1,1.4,0.4c0.4,0.3,0.6,0.7,0.6,1.4v4.3C690.6,242.7,690.5,243.3,690.2,243.7z"/>
		<path d="M716.2,166.1c0,0.6-0.2,1.2-0.7,1.7c-0.5,0.5-1,0.7-1.7,0.7h-6.1c-0.6,0-1.2-0.2-1.7-0.7c-0.5-0.5-0.7-1-0.7-1.7v-9.6
			c0-0.6,0.2-1.2,0.7-1.7c0.5-0.5,1-0.7,1.7-0.7h6.1c0.6,0,1.2,0.2,1.7,0.7c0.5,0.5,0.7,1,0.7,1.7V166.1z M716,242.6
			c0,0.6-0.2,1.2-0.7,1.7c-0.5,0.5-1,0.7-1.7,0.7h-5.8c-0.6,0-1.2-0.2-1.7-0.7c-0.5-0.5-0.7-1-0.7-1.7v-61.2c0-0.6,0.2-1.2,0.7-1.7
			c0.5-0.5,1-0.7,1.7-0.7h5.8c0.6,0,1.2,0.2,1.7,0.7c0.5,0.5,0.7,1,0.7,1.7V242.6z"/>
		<path d="M784.5,212.8c0,1.8-0.8,2.6-2.3,2.6h-40.1v1.7c0,7.1,1.4,12.2,4.2,15.1c2.8,3,7,4.4,12.5,4.4c3.5,0,7.3-0.1,11.2-0.4
			s7.3-0.6,10.1-1h0.6c0.5,0,0.9,0.1,1.3,0.4c0.4,0.2,0.6,0.7,0.6,1.3v4.1c0,0.8-0.2,1.4-0.5,1.9c-0.3,0.4-1,0.7-1.9,0.9
			c-3.4,0.6-6.9,1.1-10.3,1.5c-3.4,0.4-7.1,0.5-11.2,0.5c-3.4,0-6.8-0.5-10.1-1.4c-3.3-0.9-6.2-2.5-8.7-4.7
			c-2.5-2.2-4.6-5.1-6.1-8.8c-1.6-3.7-2.3-8.3-2.3-13.9v-10.8c0-8.6,2.3-15.5,6.8-20.5s11.1-7.6,19.8-7.6c4.4,0,8.2,0.7,11.5,2
			c3.3,1.3,6,3.2,8.2,5.6c2.2,2.4,3.9,5.4,5,8.9c1.1,3.5,1.7,7.3,1.7,11.6V212.8z M773.9,206.3c0-6.8-1.3-11.6-3.9-14.5
			c-2.6-2.9-6.5-4.3-11.8-4.3c-5.2,0-9.2,1.5-11.9,4.6c-2.8,3-4.1,7.8-4.1,14.3v1.1h31.8V206.3z"/>
		<path d="M828.3,245.3c-1.2,0.2-2.5,0.3-4,0.4c-1.4,0.1-2.7,0.2-3.8,0.2c-2.8,0-5.2-0.2-7.3-0.7c-2-0.4-3.7-1.3-5-2.5
			c-1.3-1.2-2.3-2.8-3-4.9c-0.7-2.1-1-4.8-1-8v-41.9l-11.6-1.3c-1.5-0.2-2.3-0.9-2.3-2.2v-3.2c0-1.4,0.8-2.2,2.3-2.2h11.6v-11.8
			c0-1.4,0.7-2.2,2.2-2.4l6.2-1h0.4c0.5,0,0.9,0.2,1.3,0.5c0.4,0.4,0.5,0.9,0.5,1.5V179h13c0.6,0,1.2,0.2,1.7,0.7
			c0.5,0.5,0.7,1,0.7,1.7v4.1c0,0.6-0.2,1.2-0.7,1.7c-0.5,0.5-1,0.7-1.7,0.7h-13v41.8c0,3.3,0.5,5.3,1.4,6.2s2.6,1.3,5,1.3h6.7
			c1.7,0,2.5,0.6,2.5,1.7v4.3C830.4,244.3,829.7,245,828.3,245.3z"/>
		<path d="M892.8,181.1c0,0.4,0,0.7-0.1,0.8L872.9,251c-1,3.3-2,6-3.1,8.3c-1.1,2.2-2.5,4.1-4.1,5.5c-1.7,1.4-3.7,2.4-6.1,3.1
			c-2.4,0.6-5.3,1-8.7,1c-1.7,0-3.5-0.1-5.3-0.3c-1.9-0.2-3.5-0.5-4.7-0.8c-0.7-0.2-1.3-0.4-1.8-0.6c-0.5-0.2-0.7-0.7-0.7-1.3v-4.4
			c0-1.3,0.8-1.9,2.3-1.9h0.4c1.4,0.2,3.1,0.3,5.3,0.5c2.2,0.2,4,0.2,5.3,0.2c1.7,0,3.2-0.1,4.4-0.4c1.3-0.3,2.4-0.8,3.3-1.6
			c0.9-0.8,1.7-1.8,2.4-3.1c0.7-1.3,1.3-3,1.7-5.1l1.2-4.9h-1.7c-0.9,0-1.7-0.1-2.6-0.2c-0.8-0.2-1.6-0.5-2.4-1.1
			c-0.8-0.6-1.5-1.4-2.1-2.5c-0.6-1.1-1.2-2.6-1.8-4.4l-16-54.8c-0.1-0.2-0.1-0.4-0.1-0.8c0-1.4,0.7-2,2.2-2h6.6
			c0.5,0,0.9,0.2,1.3,0.6c0.4,0.4,0.6,0.8,0.8,1.3l14.2,52.2c0.3,1.2,0.7,1.9,1.1,2.2c0.4,0.3,0.8,0.4,1.2,0.4h1.9l14.6-55
			c0.2-0.5,0.4-0.9,0.8-1.3c0.4-0.4,0.9-0.5,1.4-0.5h6.7C892.2,179,892.8,179.7,892.8,181.1z"/>
		<path d="M967.7,162.1H962c-2.8,0-4.7,0.6-5.8,1.7c-1,1.1-1.6,3.3-1.6,6.6v8.6h12.6c0.6,0,1.2,0.2,1.6,0.6c0.4,0.4,0.7,0.9,0.7,1.6
			v4.7c0,1.4-0.8,2-2.3,2h-12.6v54.7c0,0.6-0.2,1.2-0.7,1.7c-0.4,0.5-1,0.7-1.6,0.7h-5.9c-0.6,0-1.2-0.2-1.7-0.7
			c-0.5-0.5-0.7-1-0.7-1.7v-54.7l-11.6-1.3c-1.5-0.2-2.3-0.9-2.3-2.2v-3.2c0-0.6,0.2-1.2,0.7-1.6c0.4-0.4,1-0.6,1.6-0.6h11.6v-8.6
			c0-3.2,0.4-5.9,1.1-8c0.8-2.2,1.9-3.9,3.3-5.2c1.4-1.3,3.2-2.2,5.3-2.7c2.1-0.5,4.4-0.8,7.1-0.8c1.6,0,2.9,0.1,4,0.2
			c1,0.2,2,0.3,2.8,0.5c1.5,0.4,2.3,1,2.3,1.9v4C969.9,161.5,969.2,162.1,967.7,162.1z"/>
		<path d="M1029.6,216.6c0,4.4-0.6,8.4-1.7,12c-1.1,3.6-2.8,6.7-5,9.2c-2.2,2.6-5,4.5-8.4,5.9c-3.4,1.4-7.2,2.1-11.6,2.1
			c-4.4,0-8.3-0.7-11.6-2.1c-3.3-1.4-6.1-3.4-8.3-5.9c-2.2-2.6-3.9-5.6-5-9.2c-1.1-3.6-1.7-7.6-1.7-12v-9.1c0-4.4,0.6-8.4,1.7-12
			c1.1-3.6,2.8-6.7,5-9.2c2.2-2.6,5-4.5,8.3-5.9c3.3-1.4,7.2-2.1,11.6-2.1c4.4,0,8.3,0.7,11.6,2.1c3.4,1.4,6.2,3.4,8.4,5.9
			c2.2,2.6,3.9,5.6,5,9.2c1.1,3.6,1.7,7.6,1.7,12V216.6z M1019.1,207.5c0-6.2-1.3-11-3.8-14.6c-2.6-3.6-6.7-5.4-12.4-5.4
			c-5.6,0-9.7,1.8-12.2,5.3c-2.6,3.6-3.8,8.5-3.8,14.7v9.1c0,6.2,1.3,11,3.8,14.6c2.5,3.6,6.6,5.4,12.3,5.4c5.6,0,9.7-1.8,12.3-5.3
			c2.6-3.6,3.9-8.5,3.9-14.7V207.5z"/>
		<path d="M1070.9,187.4c-2.8,0-5.5,0.4-8.1,1.1c-2.6,0.8-5.4,2.1-8.5,3.9v50.2c0,0.6-0.2,1.2-0.7,1.7c-0.5,0.5-1,0.7-1.7,0.7h-5.9
			c-0.6,0-1.2-0.2-1.6-0.7c-0.4-0.5-0.7-1-0.7-1.7v-61.2c0-0.6,0.2-1.2,0.7-1.7c0.4-0.5,1-0.7,1.6-0.7h5.6c0.6,0,1.2,0.2,1.6,0.7
			c0.4,0.5,0.7,1.1,0.7,1.7v2.6c3-2.1,5.9-3.6,8.7-4.5c2.8-0.9,5.5-1.3,8.2-1.3c1.7,0,2.5,0.7,2.5,2.2v5
			C1073.4,186.7,1072.6,187.4,1070.9,187.4z"/>
		<path d="M1174.2,220.4c0,5-0.9,9.2-2.8,12.5c-1.9,3.3-4.4,5.9-7.7,7.8c-3.2,1.9-7,3.3-11.2,4c-4.2,0.8-8.7,1.1-13.3,1.1
			c-4,0-7.7-0.1-11-0.2c-3.4-0.2-6.2-0.4-8.5-0.8c-1.4-0.2-2.4-0.6-3-1.2c-0.6-0.6-1-1.7-1-3.2v-79.9c0-2.7,1.3-4.2,3.8-4.4
			c2-0.2,4.7-0.5,8.1-0.7c3.4-0.2,7.1-0.3,11-0.3c4.8,0,9.3,0.4,13.6,1.1c4.2,0.7,8,2,11.2,3.7c3.2,1.8,5.7,4.1,7.6,7.1
			c1.9,3,2.8,6.7,2.8,11.3v1.9c0,4.5-1.1,8.3-3.4,11.6c-2.2,3.2-5.4,5.7-9.5,7.2c4.2,1.4,7.4,3.9,9.8,7.3c2.4,3.4,3.5,7.5,3.5,12.1
			V220.4z M1162.8,178.2c0-2.9-0.6-5.2-1.7-7c-1.2-1.8-2.8-3.2-4.9-4.3c-2.1-1-4.6-1.7-7.6-2.1c-3-0.4-6.3-0.5-9.9-0.5
			c-2.1,0-4.1,0-6.2,0.1c-2.1,0.1-3.9,0.2-5.6,0.2v29.8h18.4c3.4,0,6.3-0.4,8.6-1.1c2.3-0.8,4.1-1.8,5.4-3.1
			c1.4-1.3,2.3-2.8,2.8-4.6c0.5-1.7,0.8-3.5,0.8-5.5V178.2z M1163.3,218.3c0-2-0.3-3.9-0.8-5.8c-0.6-1.8-1.5-3.5-2.9-4.9
			c-1.4-1.4-3.3-2.5-5.6-3.4c-2.3-0.8-5.2-1.3-8.7-1.3h-18.4v33.1c2,0.1,4,0.2,6.2,0.3s4.2,0.2,6.3,0.2c3.7,0,7-0.2,10-0.7
			c3-0.5,5.5-1.3,7.6-2.5c2.1-1.2,3.7-2.8,4.8-4.9c1.1-2.1,1.7-4.8,1.7-8.1V218.3z"/>
		<path d="M1200.5,166.1c0,0.6-0.2,1.2-0.7,1.7c-0.5,0.5-1,0.7-1.7,0.7h-6.1c-0.6,0-1.2-0.2-1.7-0.7c-0.5-0.5-0.7-1-0.7-1.7v-9.6
			c0-0.6,0.2-1.2,0.7-1.7c0.5-0.5,1-0.7,1.7-0.7h6.1c0.6,0,1.2,0.2,1.7,0.7c0.5,0.5,0.7,1,0.7,1.7V166.1z M1200.3,242.6
			c0,0.6-0.2,1.2-0.7,1.7c-0.5,0.5-1,0.7-1.7,0.7h-5.8c-0.6,0-1.2-0.2-1.7-0.7c-0.5-0.5-0.7-1-0.7-1.7v-61.2c0-0.6,0.2-1.2,0.7-1.7
			c0.5-0.5,1-0.7,1.7-0.7h5.8c0.6,0,1.2,0.2,1.7,0.7c0.5,0.5,0.7,1,0.7,1.7V242.6z"/>
		<path d="M1269.3,216.6c0,4.4-0.6,8.4-1.7,12c-1.1,3.6-2.8,6.7-5,9.2c-2.2,2.6-5,4.5-8.4,5.9c-3.4,1.4-7.2,2.1-11.6,2.1
			c-4.4,0-8.3-0.7-11.6-2.1c-3.3-1.4-6.1-3.4-8.3-5.9c-2.2-2.6-3.9-5.6-5-9.2c-1.1-3.6-1.7-7.6-1.7-12v-9.1c0-4.4,0.6-8.4,1.7-12
			c1.1-3.6,2.8-6.7,5-9.2c2.2-2.6,5-4.5,8.3-5.9c3.3-1.4,7.2-2.1,11.6-2.1c4.4,0,8.3,0.7,11.6,2.1c3.4,1.4,6.2,3.4,8.4,5.9
			c2.2,2.6,3.9,5.6,5,9.2c1.1,3.6,1.7,7.6,1.7,12V216.6z M1258.7,207.5c0-6.2-1.3-11-3.8-14.6c-2.6-3.6-6.7-5.4-12.4-5.4
			c-5.6,0-9.7,1.8-12.2,5.3c-2.6,3.6-3.8,8.5-3.8,14.7v9.1c0,6.2,1.3,11,3.8,14.6c2.5,3.6,6.6,5.4,12.3,5.4c5.6,0,9.7-1.8,12.3-5.3
			c2.6-3.6,3.9-8.5,3.9-14.7V207.5z"/>
		<path d="M1294.6,244.3c-0.4,0.5-0.9,0.7-1.6,0.7h-6.2c-0.6,0-1.2-0.2-1.6-0.7c-0.4-0.5-0.6-1-0.6-1.7v-85.6c0-0.6,0.2-1.2,0.6-1.6
			c0.4-0.4,0.9-0.7,1.6-0.7h6.2c0.6,0,1.2,0.2,1.6,0.7c0.4,0.4,0.6,1,0.6,1.6v85.6C1295.2,243.3,1295,243.8,1294.6,244.3z"/>
		<path d="M1364,216.6c0,4.4-0.6,8.4-1.7,12c-1.1,3.6-2.8,6.7-5,9.2c-2.2,2.6-5,4.5-8.4,5.9c-3.4,1.4-7.2,2.1-11.6,2.1
			c-4.4,0-8.3-0.7-11.6-2.1c-3.3-1.4-6.1-3.4-8.3-5.9c-2.2-2.6-3.9-5.6-5-9.2c-1.1-3.6-1.7-7.6-1.7-12v-9.1c0-4.4,0.6-8.4,1.7-12
			c1.1-3.6,2.8-6.7,5-9.2c2.2-2.6,5-4.5,8.3-5.9c3.3-1.4,7.2-2.1,11.6-2.1c4.4,0,8.3,0.7,11.6,2.1c3.4,1.4,6.2,3.4,8.4,5.9
			c2.2,2.6,3.9,5.6,5,9.2c1.1,3.6,1.7,7.6,1.7,12V216.6z M1353.4,207.5c0-6.2-1.3-11-3.8-14.6c-2.6-3.6-6.7-5.4-12.4-5.4
			c-5.6,0-9.7,1.8-12.2,5.3c-2.6,3.6-3.8,8.5-3.8,14.7v9.1c0,6.2,1.3,11,3.8,14.6c2.5,3.6,6.6,5.4,12.3,5.4c5.6,0,9.7-1.8,12.3-5.3
			c2.6-3.6,3.9-8.5,3.9-14.7V207.5z"/>
		<path d="M1432.8,184.8c0,0.8-0.2,1.3-0.6,1.6c-0.4,0.3-0.9,0.5-1.6,0.7l-4.3,0.8c1.1,1.1,2.1,2.6,2.9,4.6c0.8,1.9,1.2,4.5,1.2,7.8
			v1c0,6.6-2.1,11.7-6.4,15.2c-4.3,3.5-11,5.3-20.3,5.3c-3.2,0-5.9-0.2-8.1-0.7c-2.2-0.4-4.1-1-5.9-1.7c-2,1-3,2.3-3,4.1
			c0,1,0.3,1.8,0.8,2.4c0.6,0.6,1.5,1,2.9,1.4l17.9,4.6c3,0.7,5.8,1.5,8.6,2.4c2.8,0.9,5.2,2,7.4,3.3c2.2,1.3,3.9,2.9,5.2,4.9
			c1.3,1.9,1.9,4.3,1.9,7.1v1c0,5.8-2.1,10.3-6.3,13.6c-4.2,3.3-11.2,5-21.1,5c-9.5,0-16.5-1.7-20.9-5.1c-4.4-3.4-6.7-8.1-6.7-14
			v-1.1c0-3.4,0.8-6.4,2.3-9c1.5-2.6,3.3-4.7,5.3-6.2l-0.8-0.4c-1.9-0.9-3.3-2.2-4.2-4c-0.9-1.8-1.3-3.6-1.3-5.4v-0.1
			c0-1.6,0.4-3.2,1.2-4.8c0.8-1.6,2-2.9,3.7-3.8c-1.8-1.8-3.2-3.8-4.1-6c-0.9-2.2-1.4-4.9-1.4-7.9v-1c0-2.6,0.4-5.2,1.3-7.8
			c0.8-2.6,2.3-4.8,4.3-6.8c2-2,4.8-3.6,8.2-4.8s7.7-1.8,12.9-1.8h26.3c0.7,0,1.4,0.3,1.9,0.8c0.6,0.5,0.8,1.1,0.8,1.9V184.8z
			 M1420.8,249.5c0-2.3-1.1-4.1-3.3-5.4c-2.2-1.3-6-2.6-11.3-4l-13.6-3.5c-1.8,1.5-3.2,3.2-4.3,4.9c-1.1,1.8-1.6,4.2-1.6,7.3v1.1
			c0,1.7,0.3,3.2,0.8,4.6c0.6,1.4,1.5,2.5,2.8,3.4c1.3,0.9,3.1,1.6,5.3,2.2c2.2,0.5,5,0.8,8.3,0.8c3.4,0,6.2-0.2,8.4-0.7
			c2.2-0.5,3.9-1.2,5.1-2c1.2-0.9,2.1-2,2.6-3.2c0.5-1.3,0.7-2.8,0.7-4.4V249.5z M1419.9,200.3c0-1.8-0.2-3.4-0.7-5
			c-0.5-1.6-1.3-3-2.5-4.1c-1.2-1.1-2.9-2-5-2.7c-2.1-0.7-4.8-1-8-1c-3.4,0-6.1,0.4-8.2,1.1c-2.1,0.7-3.8,1.7-4.9,2.8
			c-1.2,1.2-2,2.5-2.4,4.1c-0.4,1.6-0.7,3.2-0.7,4.9v1c0,1.4,0.2,2.8,0.6,4.2c0.4,1.4,1.2,2.8,2.3,4c1.2,1.2,2.8,2.2,4.9,2.9
			c2.1,0.8,4.9,1.1,8.3,1.1c3.2,0,5.9-0.3,8-0.9c2.1-0.6,3.8-1.4,5-2.5c1.2-1.1,2-2.4,2.5-3.8c0.5-1.5,0.7-3.1,0.7-5V200.3z"/>
		<path d="M1457.3,166.1c0,0.6-0.2,1.2-0.7,1.7c-0.5,0.5-1,0.7-1.7,0.7h-6.1c-0.6,0-1.2-0.2-1.7-0.7c-0.5-0.5-0.7-1-0.7-1.7v-9.6
			c0-0.6,0.2-1.2,0.7-1.7c0.5-0.5,1-0.7,1.7-0.7h6.1c0.6,0,1.2,0.2,1.7,0.7c0.5,0.5,0.7,1,0.7,1.7V166.1z M1457.1,242.6
			c0,0.6-0.2,1.2-0.7,1.7c-0.5,0.5-1,0.7-1.7,0.7h-5.8c-0.6,0-1.2-0.2-1.7-0.7c-0.5-0.5-0.7-1-0.7-1.7v-61.2c0-0.6,0.2-1.2,0.7-1.7
			c0.5-0.5,1-0.7,1.7-0.7h5.8c0.6,0,1.2,0.2,1.7,0.7c0.5,0.5,0.7,1,0.7,1.7V242.6z"/>
		<path d="M1515.2,243.7c-0.3,0.4-1,0.7-1.9,0.8c-2,0.4-4.3,0.7-6.9,1c-2.6,0.2-5.3,0.4-8.1,0.4c-4.1,0-7.7-0.7-10.9-2.1
			c-3.2-1.4-5.8-3.4-8-5.9c-2.2-2.5-3.9-5.6-5-9.2c-1.1-3.6-1.7-7.6-1.7-12v-9.4c0-4.4,0.6-8.4,1.7-12c1.1-3.6,2.8-6.7,4.9-9.2
			c2.2-2.5,4.8-4.5,8-5.9c3.2-1.4,6.8-2.1,10.9-2.1c2.8,0,5.5,0.1,8.1,0.4c2.6,0.2,4.9,0.6,6.9,1c1,0.2,1.6,0.4,1.9,0.8
			c0.3,0.4,0.5,1,0.5,1.9v4.3c0,0.6-0.2,1.1-0.6,1.4c-0.4,0.3-0.9,0.4-1.4,0.4h-0.5c-2.6-0.3-5-0.5-7.2-0.7s-4.7-0.2-7.7-0.2
			c-4.8,0-8.5,1.6-11.1,4.9c-2.6,3.2-3.9,8.3-3.9,15.1v9.4c0,6.8,1.3,11.8,3.8,15.1c2.6,3.2,6.3,4.9,11.2,4.9c3,0,5.5-0.1,7.7-0.2
			s4.6-0.3,7.2-0.7h0.5c0.6,0,1,0.1,1.4,0.4c0.4,0.3,0.6,0.7,0.6,1.4v4.3C1515.6,242.7,1515.5,243.3,1515.2,243.7z"/>
		<path d="M1575,242.6c0,0.6-0.2,1.2-0.7,1.7c-0.5,0.5-1,0.7-1.7,0.7h-5.5c-0.6,0-1.2-0.2-1.7-0.7c-0.5-0.5-0.7-1-0.7-1.7V240
			c-2.9,1.7-5.8,3.1-8.9,4.2c-3,1.1-6.2,1.7-9.6,1.7c-2.6,0-5-0.3-7.4-0.9c-2.4-0.6-4.4-1.7-6.2-3.2c-1.8-1.5-3.2-3.5-4.3-6
			c-1.1-2.5-1.6-5.6-1.6-9.4V225c0-3.2,0.5-6,1.5-8.5c1-2.4,2.6-4.5,4.9-6.1c2.3-1.6,5.3-2.9,8.9-3.7c3.7-0.8,8.2-1.2,13.6-1.2h8.9
			v-4.8c0-5-1-8.6-2.9-10.6c-1.9-2-5.2-3-10-3c-3.9,0-7.4,0.1-10.3,0.3c-3,0.2-5.6,0.4-8,0.7h-0.6c-0.6,0-1.1-0.1-1.5-0.4
			c-0.4-0.2-0.7-0.8-0.7-1.6V182c0-1.3,0.8-2,2.5-2.3c2.5-0.4,5.2-0.8,8.1-1.1c2.9-0.3,6.4-0.5,10.5-0.5c8.3,0,14.3,2,17.9,6
			c3.6,4,5.5,9.5,5.5,16.6V242.6z M1564.5,213.1h-8.9c-3.6,0-6.6,0.2-9,0.7c-2.4,0.4-4.3,1.1-5.6,2c-1.4,0.9-2.3,2.1-2.9,3.6
			c-0.6,1.5-0.8,3.3-0.8,5.5v1.4c0,4.3,1,7.2,2.9,8.7c1.9,1.5,4.6,2.2,8.2,2.2c2.8,0,5.5-0.4,8-1.2c2.6-0.8,5.3-2,8.2-3.6V213.1z"/>
		<path d="M1602.5,244.3c-0.4,0.5-0.9,0.7-1.6,0.7h-6.2c-0.6,0-1.2-0.2-1.6-0.7c-0.4-0.5-0.6-1-0.6-1.7v-85.6c0-0.6,0.2-1.2,0.6-1.6
			c0.4-0.4,0.9-0.7,1.6-0.7h6.2c0.6,0,1.2,0.2,1.6,0.7c0.4,0.4,0.6,1,0.6,1.6v85.6C1603.1,243.3,1602.9,243.8,1602.5,244.3z"/>
		<path d="M1701.3,244.7c-0.2,0.3-0.5,0.5-0.9,0.6c-1.1,0.2-2.6,0.3-4.6,0.3c-1.9,0-4,0.1-6.2,0.2c-2.2,0.1-4.4,0.1-6.7,0.1
			c-2.2,0-4.2,0-6,0c-8.5,0-14.9-1.7-19.1-5.2c-4.3-3.4-6.4-9.2-6.4-17.2v-46.2c0-8,2.1-13.7,6.4-17.2c4.3-3.4,10.7-5.2,19.1-5.2
			c1.8,0,3.7,0,5.9,0.1c2.2,0,4.4,0.1,6.5,0.1c2.2,0,4.2,0.1,6.1,0.2c1.9,0.1,3.5,0.2,4.8,0.3c0.4,0.1,0.7,0.3,0.9,0.6
			c0.2,0.3,0.3,0.7,0.3,1.1v6c0,1-0.4,1.4-1.3,1.4h-23.2c-3.2,0-5.8,0.2-7.7,0.7c-1.9,0.4-3.4,1.2-4.4,2.2c-1,1-1.7,2.3-2.1,3.9
			c-0.4,1.6-0.5,3.5-0.5,5.8V194h36.8c0.6,0,1.2,0.2,1.7,0.7c0.5,0.5,0.7,1,0.7,1.7v4.5c0,0.6-0.2,1.2-0.7,1.7
			c-0.5,0.5-1,0.7-1.7,0.7h-36.8v20.2c0,2.3,0.2,4.3,0.5,5.8c0.4,1.6,1.1,2.9,2.1,3.9c1,1,2.5,1.7,4.4,2.2s4.5,0.7,7.7,0.7h23.2
			c0.9,0,1.3,0.5,1.3,1.4v6.1C1701.6,244,1701.5,244.4,1701.3,244.7z"/>
		<path d="M1766.2,244.3c-0.5,0.5-1,0.7-1.7,0.7h-5.8c-0.6,0-1.2-0.2-1.7-0.7c-0.5-0.5-0.7-1-0.7-1.7v-39.4c0-3-0.3-5.6-0.8-7.6
			c-0.5-2-1.3-3.7-2.4-4.9c-1.1-1.2-2.5-2.1-4.1-2.6c-1.7-0.5-3.6-0.8-5.9-0.8c-2.6,0-5.2,0.4-7.9,1.3c-2.7,0.9-5.5,2-8.3,3.4v50.5
			c0,0.6-0.2,1.2-0.7,1.7c-0.5,0.5-1,0.7-1.7,0.7h-5.9c-0.6,0-1.2-0.2-1.6-0.7c-0.4-0.5-0.7-1-0.7-1.7v-61.2c0-0.6,0.2-1.2,0.7-1.7
			c0.4-0.5,1-0.7,1.6-0.7h6c0.6,0,1.2,0.2,1.6,0.7c0.4,0.5,0.7,1.1,0.7,1.7v2.3c3.4-1.9,6.5-3.3,9.4-4.2s6.1-1.4,9.7-1.4
			c7.3,0,12.6,2.2,15.9,6.5c3.3,4.3,5,10.5,5,18.5v39.5C1766.9,243.3,1766.7,243.8,1766.2,244.3z"/>
		<path d="M1837.9,184.8c0,0.8-0.2,1.3-0.6,1.6c-0.4,0.3-0.9,0.5-1.6,0.7l-4.3,0.8c1.1,1.1,2.1,2.6,2.9,4.6c0.8,1.9,1.2,4.5,1.2,7.8
			v1c0,6.6-2.1,11.7-6.4,15.2c-4.3,3.5-11,5.3-20.3,5.3c-3.2,0-5.9-0.2-8.1-0.7c-2.2-0.4-4.1-1-5.9-1.7c-2,1-3,2.3-3,4.1
			c0,1,0.3,1.8,0.8,2.4c0.6,0.6,1.5,1,2.9,1.4l17.9,4.6c3,0.7,5.8,1.5,8.6,2.4c2.8,0.9,5.2,2,7.4,3.3c2.2,1.3,3.9,2.9,5.2,4.9
			c1.3,1.9,1.9,4.3,1.9,7.1v1c0,5.8-2.1,10.3-6.3,13.6c-4.2,3.3-11.2,5-21.1,5c-9.5,0-16.5-1.7-20.9-5.1c-4.4-3.4-6.7-8.1-6.7-14
			v-1.1c0-3.4,0.8-6.4,2.3-9c1.5-2.6,3.3-4.7,5.3-6.2l-0.8-0.4c-1.9-0.9-3.3-2.2-4.2-4c-0.9-1.8-1.3-3.6-1.3-5.4v-0.1
			c0-1.6,0.4-3.2,1.2-4.8c0.8-1.6,2-2.9,3.7-3.8c-1.8-1.8-3.2-3.8-4.1-6c-0.9-2.2-1.4-4.9-1.4-7.9v-1c0-2.6,0.4-5.2,1.3-7.8
			c0.8-2.6,2.3-4.8,4.3-6.8c2-2,4.8-3.6,8.2-4.8s7.7-1.8,12.9-1.8h26.3c0.7,0,1.4,0.3,1.9,0.8c0.6,0.5,0.8,1.1,0.8,1.9V184.8z
			 M1826,249.5c0-2.3-1.1-4.1-3.3-5.4c-2.2-1.3-6-2.6-11.3-4l-13.6-3.5c-1.8,1.5-3.2,3.2-4.3,4.9c-1.1,1.8-1.6,4.2-1.6,7.3v1.1
			c0,1.7,0.3,3.2,0.8,4.6c0.6,1.4,1.5,2.5,2.8,3.4c1.3,0.9,3.1,1.6,5.3,2.2c2.2,0.5,5,0.8,8.3,0.8c3.4,0,6.2-0.2,8.4-0.7
			c2.2-0.5,3.9-1.2,5.1-2c1.2-0.9,2.1-2,2.6-3.2c0.5-1.3,0.7-2.8,0.7-4.4V249.5z M1825,200.3c0-1.8-0.2-3.4-0.7-5
			c-0.5-1.6-1.3-3-2.5-4.1c-1.2-1.1-2.9-2-5-2.7c-2.1-0.7-4.8-1-8-1c-3.4,0-6.1,0.4-8.2,1.1c-2.1,0.7-3.8,1.7-4.9,2.8
			c-1.2,1.2-2,2.5-2.4,4.1c-0.4,1.6-0.7,3.2-0.7,4.9v1c0,1.4,0.2,2.8,0.6,4.2c0.4,1.4,1.2,2.8,2.3,4c1.2,1.2,2.8,2.2,4.9,2.9
			c2.1,0.8,4.9,1.1,8.3,1.1c3.2,0,5.9-0.3,8-0.9c2.1-0.6,3.8-1.4,5-2.5c1.2-1.1,2-2.4,2.5-3.8c0.5-1.5,0.7-3.1,0.7-5V200.3z"/>
		<path d="M1862.4,166.1c0,0.6-0.2,1.2-0.7,1.7c-0.5,0.5-1,0.7-1.7,0.7h-6.1c-0.6,0-1.2-0.2-1.7-0.7c-0.5-0.5-0.7-1-0.7-1.7v-9.6
			c0-0.6,0.2-1.2,0.7-1.7c0.5-0.5,1-0.7,1.7-0.7h6.1c0.6,0,1.2,0.2,1.7,0.7c0.5,0.5,0.7,1,0.7,1.7V166.1z M1862.2,242.6
			c0,0.6-0.2,1.2-0.7,1.7c-0.5,0.5-1,0.7-1.7,0.7h-5.8c-0.6,0-1.2-0.2-1.7-0.7c-0.5-0.5-0.7-1-0.7-1.7v-61.2c0-0.6,0.2-1.2,0.7-1.7
			c0.5-0.5,1-0.7,1.7-0.7h5.8c0.6,0,1.2,0.2,1.7,0.7c0.5,0.5,0.7,1,0.7,1.7V242.6z"/>
		<path d="M1929.8,244.3c-0.5,0.5-1,0.7-1.7,0.7h-5.8c-0.6,0-1.2-0.2-1.7-0.7c-0.5-0.5-0.7-1-0.7-1.7v-39.4c0-3-0.3-5.6-0.8-7.6
			c-0.5-2-1.3-3.7-2.4-4.9c-1.1-1.2-2.5-2.1-4.1-2.6c-1.7-0.5-3.6-0.8-5.9-0.8c-2.6,0-5.2,0.4-7.9,1.3c-2.7,0.9-5.5,2-8.3,3.4v50.5
			c0,0.6-0.2,1.2-0.7,1.7c-0.5,0.5-1,0.7-1.7,0.7h-5.9c-0.6,0-1.2-0.2-1.6-0.7c-0.4-0.5-0.7-1-0.7-1.7v-61.2c0-0.6,0.2-1.2,0.7-1.7
			c0.4-0.5,1-0.7,1.6-0.7h6c0.6,0,1.2,0.2,1.6,0.7c0.4,0.5,0.7,1.1,0.7,1.7v2.3c3.4-1.9,6.5-3.3,9.4-4.2s6.1-1.4,9.7-1.4
			c7.3,0,12.6,2.2,15.9,6.5c3.3,4.3,5,10.5,5,18.5v39.5C1930.5,243.3,1930.2,243.8,1929.8,244.3z"/>
		<path d="M1997.6,212.8c0,1.8-0.8,2.6-2.3,2.6h-40.1v1.7c0,7.1,1.4,12.2,4.2,15.1c2.8,3,7,4.4,12.5,4.4c3.5,0,7.3-0.1,11.2-0.4
			s7.3-0.6,10.1-1h0.6c0.5,0,0.9,0.1,1.3,0.4c0.4,0.2,0.6,0.7,0.6,1.3v4.1c0,0.8-0.2,1.4-0.5,1.9c-0.3,0.4-1,0.7-1.9,0.9
			c-3.4,0.6-6.9,1.1-10.3,1.5c-3.4,0.4-7.1,0.5-11.2,0.5c-3.4,0-6.8-0.5-10.1-1.4c-3.3-0.9-6.2-2.5-8.7-4.7
			c-2.5-2.2-4.6-5.1-6.1-8.8c-1.6-3.7-2.3-8.3-2.3-13.9v-10.8c0-8.6,2.3-15.5,6.8-20.5s11.1-7.6,19.8-7.6c4.4,0,8.2,0.7,11.5,2
			c3.3,1.3,6,3.2,8.2,5.6c2.2,2.4,3.9,5.4,5,8.9c1.1,3.5,1.7,7.3,1.7,11.6V212.8z M1987,206.3c0-6.8-1.3-11.6-3.9-14.5
			c-2.6-2.9-6.5-4.3-11.8-4.3c-5.2,0-9.2,1.5-11.9,4.6c-2.8,3-4.1,7.8-4.1,14.3v1.1h31.8V206.3z"/>
		<path d="M2062.8,212.8c0,1.8-0.8,2.6-2.3,2.6h-40.1v1.7c0,7.1,1.4,12.2,4.2,15.1c2.8,3,7,4.4,12.5,4.4c3.5,0,7.3-0.1,11.2-0.4
			c4-0.2,7.3-0.6,10.1-1h0.6c0.5,0,0.9,0.1,1.3,0.4c0.4,0.2,0.6,0.7,0.6,1.3v4.1c0,0.8-0.2,1.4-0.5,1.9c-0.3,0.4-1,0.7-1.9,0.9
			c-3.4,0.6-6.9,1.1-10.3,1.5c-3.4,0.4-7.1,0.5-11.2,0.5c-3.4,0-6.8-0.5-10.1-1.4c-3.3-0.9-6.2-2.5-8.7-4.7
			c-2.5-2.2-4.6-5.1-6.1-8.8c-1.6-3.7-2.3-8.3-2.3-13.9v-10.8c0-8.6,2.3-15.5,6.8-20.5s11.1-7.6,19.8-7.6c4.4,0,8.2,0.7,11.5,2
			c3.3,1.3,6,3.2,8.2,5.6c2.2,2.4,3.9,5.4,5,8.9c1.1,3.5,1.7,7.3,1.7,11.6V212.8z M2052.3,206.3c0-6.8-1.3-11.6-3.9-14.5
			c-2.6-2.9-6.5-4.3-11.8-4.3c-5.2,0-9.2,1.5-11.9,4.6c-2.8,3-4.1,7.8-4.1,14.3v1.1h31.8V206.3z"/>
		<path d="M2104.5,187.4c-2.8,0-5.5,0.4-8.1,1.1c-2.6,0.8-5.4,2.1-8.5,3.9v50.2c0,0.6-0.2,1.2-0.7,1.7c-0.5,0.5-1,0.7-1.7,0.7h-5.9
			c-0.6,0-1.2-0.2-1.6-0.7c-0.4-0.5-0.7-1-0.7-1.7v-61.2c0-0.6,0.2-1.2,0.7-1.7c0.4-0.5,1-0.7,1.6-0.7h5.6c0.6,0,1.2,0.2,1.6,0.7
			c0.4,0.5,0.7,1.1,0.7,1.7v2.6c3-2.1,5.9-3.6,8.7-4.5c2.8-0.9,5.5-1.3,8.2-1.3c1.7,0,2.5,0.7,2.5,2.2v5
			C2107,186.7,2106.2,187.4,2104.5,187.4z"/>
		<path d="M2130.5,166.1c0,0.6-0.2,1.2-0.7,1.7c-0.5,0.5-1,0.7-1.7,0.7h-6.1c-0.6,0-1.2-0.2-1.7-0.7c-0.5-0.5-0.7-1-0.7-1.7v-9.6
			c0-0.6,0.2-1.2,0.7-1.7c0.5-0.5,1-0.7,1.7-0.7h6.1c0.6,0,1.2,0.2,1.7,0.7c0.5,0.5,0.7,1,0.7,1.7V166.1z M2130.3,242.6
			c0,0.6-0.2,1.2-0.7,1.7c-0.5,0.5-1,0.7-1.7,0.7h-5.8c-0.6,0-1.2-0.2-1.7-0.7c-0.5-0.5-0.7-1-0.7-1.7v-61.2c0-0.6,0.2-1.2,0.7-1.7
			c0.5-0.5,1-0.7,1.7-0.7h5.8c0.6,0,1.2,0.2,1.7,0.7c0.5,0.5,0.7,1,0.7,1.7V242.6z"/>
		<path d="M2197.8,244.3c-0.5,0.5-1,0.7-1.7,0.7h-5.8c-0.6,0-1.2-0.2-1.7-0.7c-0.5-0.5-0.7-1-0.7-1.7v-39.4c0-3-0.3-5.6-0.8-7.6
			c-0.5-2-1.3-3.7-2.4-4.9c-1.1-1.2-2.5-2.1-4.1-2.6c-1.7-0.5-3.6-0.8-5.9-0.8c-2.6,0-5.2,0.4-7.9,1.3c-2.7,0.9-5.5,2-8.3,3.4v50.5
			c0,0.6-0.2,1.2-0.7,1.7c-0.5,0.5-1,0.7-1.7,0.7h-5.9c-0.6,0-1.2-0.2-1.6-0.7c-0.4-0.5-0.7-1-0.7-1.7v-61.2c0-0.6,0.2-1.2,0.7-1.7
			c0.4-0.5,1-0.7,1.6-0.7h6c0.6,0,1.2,0.2,1.6,0.7c0.4,0.5,0.7,1.1,0.7,1.7v2.3c3.4-1.9,6.5-3.3,9.4-4.2s6.1-1.4,9.7-1.4
			c7.3,0,12.6,2.2,15.9,6.5c3.3,4.3,5,10.5,5,18.5v39.5C2198.6,243.3,2198.3,243.8,2197.8,244.3z"/>
		<path d="M2269.5,184.8c0,0.8-0.2,1.3-0.6,1.6c-0.4,0.3-0.9,0.5-1.6,0.7l-4.3,0.8c1.1,1.1,2.1,2.6,2.9,4.6c0.8,1.9,1.2,4.5,1.2,7.8
			v1c0,6.6-2.1,11.7-6.4,15.2c-4.3,3.5-11,5.3-20.3,5.3c-3.2,0-5.9-0.2-8.1-0.7c-2.2-0.4-4.1-1-5.9-1.7c-2,1-3,2.3-3,4.1
			c0,1,0.3,1.8,0.8,2.4c0.6,0.6,1.5,1,2.9,1.4l17.9,4.6c3,0.7,5.8,1.5,8.6,2.4c2.8,0.9,5.2,2,7.4,3.3c2.2,1.3,3.9,2.9,5.2,4.9
			c1.3,1.9,1.9,4.3,1.9,7.1v1c0,5.8-2.1,10.3-6.3,13.6c-4.2,3.3-11.2,5-21.1,5c-9.5,0-16.5-1.7-20.9-5.1c-4.4-3.4-6.7-8.1-6.7-14
			v-1.1c0-3.4,0.8-6.4,2.3-9c1.5-2.6,3.3-4.7,5.3-6.2l-0.8-0.4c-1.9-0.9-3.3-2.2-4.2-4c-0.9-1.8-1.3-3.6-1.3-5.4v-0.1
			c0-1.6,0.4-3.2,1.2-4.8c0.8-1.6,2-2.9,3.7-3.8c-1.8-1.8-3.2-3.8-4.1-6c-0.9-2.2-1.4-4.9-1.4-7.9v-1c0-2.6,0.4-5.2,1.3-7.8
			c0.8-2.6,2.3-4.8,4.3-6.8c2-2,4.8-3.6,8.2-4.8s7.7-1.8,12.9-1.8h26.3c0.7,0,1.4,0.3,1.9,0.8c0.6,0.5,0.8,1.1,0.8,1.9V184.8z
			 M2257.6,249.5c0-2.3-1.1-4.1-3.3-5.4c-2.2-1.3-6-2.6-11.3-4l-13.6-3.5c-1.8,1.5-3.2,3.2-4.3,4.9c-1.1,1.8-1.6,4.2-1.6,7.3v1.1
			c0,1.7,0.3,3.2,0.8,4.6c0.6,1.4,1.5,2.5,2.8,3.4c1.3,0.9,3.1,1.6,5.3,2.2c2.2,0.5,5,0.8,8.3,0.8c3.4,0,6.2-0.2,8.4-0.7
			c2.2-0.5,3.9-1.2,5.1-2c1.2-0.9,2.1-2,2.6-3.2c0.5-1.3,0.7-2.8,0.7-4.4V249.5z M2256.6,200.3c0-1.8-0.2-3.4-0.7-5
			c-0.5-1.6-1.3-3-2.5-4.1c-1.2-1.1-2.9-2-5-2.7c-2.1-0.7-4.8-1-8-1c-3.4,0-6.1,0.4-8.2,1.1c-2.1,0.7-3.8,1.7-4.9,2.8
			c-1.2,1.2-2,2.5-2.4,4.1c-0.4,1.6-0.7,3.2-0.7,4.9v1c0,1.4,0.2,2.8,0.6,4.2c0.4,1.4,1.2,2.8,2.3,4c1.2,1.2,2.8,2.2,4.9,2.9
			c2.1,0.8,4.9,1.1,8.3,1.1c3.2,0,5.9-0.3,8-0.9c2.1-0.6,3.8-1.4,5-2.5c1.2-1.1,2-2.4,2.5-3.8c0.5-1.5,0.7-3.1,0.7-5V200.3z"/>
		<path d="M2357.5,242.6c0,0.6-0.2,1.2-0.7,1.7c-0.5,0.5-1,0.7-1.7,0.7h-5.5c-0.6,0-1.2-0.2-1.7-0.7c-0.5-0.5-0.7-1-0.7-1.7V240
			c-2.9,1.7-5.8,3.1-8.9,4.2c-3,1.1-6.2,1.7-9.6,1.7c-2.6,0-5-0.3-7.4-0.9c-2.4-0.6-4.4-1.7-6.2-3.2c-1.8-1.5-3.2-3.5-4.3-6
			c-1.1-2.5-1.6-5.6-1.6-9.4V225c0-3.2,0.5-6,1.5-8.5c1-2.4,2.6-4.5,4.9-6.1c2.3-1.6,5.3-2.9,8.9-3.7c3.7-0.8,8.2-1.2,13.6-1.2h8.9
			v-4.8c0-5-1-8.6-2.9-10.6c-1.9-2-5.2-3-10-3c-3.9,0-7.4,0.1-10.3,0.3c-3,0.2-5.6,0.4-8,0.7h-0.6c-0.6,0-1.1-0.1-1.5-0.4
			c-0.4-0.2-0.7-0.8-0.7-1.6V182c0-1.3,0.8-2,2.5-2.3c2.5-0.4,5.2-0.8,8.1-1.1c2.9-0.3,6.4-0.5,10.5-0.5c8.3,0,14.3,2,17.9,6
			c3.6,4,5.5,9.5,5.5,16.6V242.6z M2347,213.1h-8.9c-3.6,0-6.6,0.2-9,0.7c-2.4,0.4-4.3,1.1-5.6,2c-1.4,0.9-2.3,2.1-2.9,3.6
			c-0.6,1.5-0.8,3.3-0.8,5.5v1.4c0,4.3,1,7.2,2.9,8.7c1.9,1.5,4.6,2.2,8.2,2.2c2.8,0,5.5-0.4,8-1.2c2.6-0.8,5.3-2,8.2-3.6V213.1z"/>
		<path d="M2403.9,245.3c-1.2,0.2-2.5,0.3-4,0.4c-1.4,0.1-2.7,0.2-3.8,0.2c-2.8,0-5.2-0.2-7.3-0.7c-2-0.4-3.7-1.3-5-2.5
			c-1.3-1.2-2.3-2.8-3-4.9c-0.7-2.1-1-4.8-1-8v-41.9l-11.6-1.3c-1.5-0.2-2.3-0.9-2.3-2.2v-3.2c0-1.4,0.8-2.2,2.3-2.2h11.6v-11.8
			c0-1.4,0.7-2.2,2.2-2.4l6.2-1h0.4c0.5,0,0.9,0.2,1.3,0.5c0.4,0.4,0.5,0.9,0.5,1.5V179h13c0.6,0,1.2,0.2,1.7,0.7
			c0.5,0.5,0.7,1,0.7,1.7v4.1c0,0.6-0.2,1.2-0.7,1.7c-0.5,0.5-1,0.7-1.7,0.7h-13v41.8c0,3.3,0.5,5.3,1.4,6.2s2.6,1.3,5,1.3h6.7
			c1.7,0,2.5,0.6,2.5,1.7v4.3C2406,244.3,2405.3,245,2403.9,245.3z"/>
		<path d="M2508.7,208.6c0,6.4-0.9,12-2.6,16.7c-1.7,4.7-4.2,8.6-7.3,11.6c-3.2,3-7,5.3-11.5,6.8c-4.5,1.5-9.5,2.2-15,2.2
			c-2.3,0-4.6,0-6.8-0.1c-2.2-0.1-4.3-0.2-6.2-0.3c-2-0.1-3.7-0.2-5.2-0.4c-1.5-0.1-2.7-0.3-3.6-0.4c-1.7-0.2-2.5-1.2-2.5-3v-82.4
			c0-1.8,0.8-2.8,2.5-3c0.9-0.2,2.1-0.3,3.6-0.4c1.5-0.1,3.3-0.2,5.2-0.4c2-0.1,4-0.2,6.2-0.3c2.2-0.1,4.5-0.1,6.8-0.1
			c5.5,0,10.5,0.7,15,2.2c4.5,1.4,8.3,3.7,11.5,6.8c3.2,3.1,5.6,7,7.3,11.6c1.7,4.7,2.6,10.3,2.6,16.7V208.6z M2497.8,192.3
			c0-5.4-0.7-10-2-13.6c-1.3-3.6-3.1-6.5-5.4-8.6c-2.3-2.1-4.9-3.6-8-4.5c-3.1-0.9-6.4-1.3-10-1.3c-2.8,0-5.2,0-7.2,0.1
			c-2,0-4,0.1-6,0.3v71.6c1.9,0.2,3.9,0.2,6,0.2c2.1,0,4.5,0,7.3,0c3.6,0,6.9-0.4,10-1.3s5.7-2.4,8-4.6c2.3-2.2,4.1-5,5.4-8.6
			c1.3-3.6,2-8.1,2-13.5V192.3z"/>
		<path d="M2575.6,165.1h-23.4v77.5c0,0.6-0.2,1.2-0.6,1.7c-0.4,0.5-0.9,0.7-1.6,0.7h-6.6c-0.6,0-1.2-0.2-1.6-0.7
			c-0.4-0.5-0.6-1-0.6-1.7v-77.5h-23.4c-0.6,0-1.2-0.2-1.7-0.5c-0.5-0.3-0.7-0.8-0.7-1.4V158c0-0.6,0.2-1.1,0.7-1.5
			c0.5-0.4,1-0.6,1.7-0.6h57.7c1.5,0,2.3,0.7,2.3,2.1v5.2C2577.9,164.5,2577.1,165.1,2575.6,165.1z"/>
		<path d="M2644.5,237.8c-5.4,5.4-13,8-22.7,8c-9.8,0-17.4-2.7-22.7-8c-5.4-5.4-8.1-13.8-8.1-25.2v-54.5c0-0.6,0.2-1.2,0.7-1.6
			c0.4-0.4,1-0.7,1.6-0.7h6.6c0.6,0,1.2,0.2,1.6,0.7c0.4,0.4,0.7,1,0.7,1.6v54.6c0,3.8,0.3,7.3,1,10.3s1.7,5.5,3.3,7.5
			c1.6,2,3.6,3.5,6,4.6c2.5,1,5.6,1.6,9.3,1.6c3.7,0,6.8-0.5,9.3-1.6c2.5-1,4.5-2.6,6.1-4.6c1.6-2,2.7-4.5,3.3-7.5
			c0.6-3,1-6.4,1-10.3v-54.6c0-0.6,0.2-1.2,0.7-1.6c0.4-0.4,1-0.7,1.6-0.7h6.6c0.6,0,1.2,0.2,1.6,0.7c0.4,0.4,0.7,1,0.7,1.6v54.5
			C2652.6,224.1,2649.9,232.5,2644.5,237.8z"/>
	</g>
</g>
<g id="Layer_3">
	<g>
		<path fill="#AE2D35" d="M291.9,83.2l19.2-10.1c0,0,17.5,7.4,26.8,7.4c9.8-0.1,26.2-7.7,26.2-7.7l19,10.1l-19.4,10.6
			c0,0-18.9-7.4-25.7-7.5c-6.6-0.2-26.8,7.7-26.8,7.7L291.9,83.2"/>
		<path fill="#AE2D35" d="M291.9,133.2l19.2-10.1c0,0,17.5,7.4,26.8,7.4c9.8-0.1,26.2-7.7,26.2-7.7l19,10.1l-19.4,10.6
			c0,0-18.9-7.4-25.7-7.5c-6.6-0.2-26.8,7.7-26.8,7.7L291.9,133.2"/>
		<path fill="#AE2D35" d="M291.9,108.2l19.2-10.1c0,0,17.5,7.4,26.8,7.4c9.8-0.1,26.2-7.7,26.2-7.7l19,10.1l-19.4,10.6
			c0,0-18.9-7.4-25.7-7.5c-6.6-0.2-26.8,7.7-26.8,7.7L291.9,108.2"/>
	</g>
	<g>
		<rect x="73.5" y="65.7" fill="none" width="72.9" height="96.9"/>
		<path d="M133.5,127c0,2.9-0.5,5.8-1.5,8.7c-1,2.9-2.7,5.4-5.1,7.7c-2.4,2.3-5.5,4.1-9.3,5.6c-3.8,1.4-8.5,2.1-14.1,2.1
			c-4.4,0-8.3-0.2-11.6-0.7c-3.3-0.4-6.4-1-9.2-1.8c-0.6-0.1-1.1-0.4-1.5-0.8c-0.4-0.4-0.7-0.8-0.7-1.4v-10.8c0-0.8,0.2-1.4,0.5-1.6
			c0.4-0.3,0.8-0.4,1.4-0.4h0.3c1.1,0.1,2.6,0.3,4.6,0.4c1.9,0.1,3.9,0.3,6,0.4c2.1,0.1,4,0.2,5.9,0.3s3.4,0.2,4.5,0.2
			c3.8,0,6.4-0.6,7.8-1.9c1.4-1.2,2-3.2,2-5.8c0-1.6-0.5-3-1.5-4.1c-1-1.1-2.9-2.5-5.8-4.2l-15.2-9c-2.6-1.5-4.7-3.1-6.3-4.7
			c-1.7-1.6-3-3.3-4-5.1c-1-1.8-1.7-3.6-2.1-5.4c-0.4-1.9-0.6-3.8-0.6-5.8c0-3,0.5-5.8,1.4-8.4c0.9-2.6,2.5-4.9,4.7-6.8
			c2.2-1.9,5.1-3.5,8.7-4.6c3.6-1.1,8.1-1.7,13.4-1.7c2,0,4.1,0.1,6.4,0.2c2.3,0.1,4.5,0.3,6.7,0.5c2.1,0.2,4.1,0.5,5.9,0.8
			c1.8,0.3,3.3,0.6,4.3,0.9c0.4,0.1,0.8,0.4,1.2,0.7c0.3,0.3,0.5,0.7,0.5,1.3v11.1c0,0.5-0.1,1-0.4,1.3c-0.3,0.4-0.8,0.5-1.5,0.5
			h-0.2c-0.8-0.1-2.1-0.2-3.9-0.3c-1.8-0.1-3.8-0.2-6.1-0.4c-2.3-0.1-4.6-0.3-7-0.4c-2.4-0.1-4.5-0.2-6.3-0.2
			c-3.2,0-5.4,0.5-6.7,1.4c-1.3,1-1.9,2.4-1.9,4.4c0,0.8,0.1,1.5,0.3,2.1c0.2,0.6,0.6,1.2,1.2,1.7s1.3,1.1,2.3,1.8
			c1,0.6,2.2,1.3,3.6,2.1l14.1,7.6c5.7,3.1,9.6,6.5,11.7,10.1C132.5,118.4,133.5,122.5,133.5,127z"/>
	</g>
	<g>
		<rect x="187.5" y="187.6" fill="none" width="81.4" height="98.5"/>
		<path d="M249.8,242.8c0,4.4-0.8,8-2.5,11c-1.7,2.9-3.9,5.2-6.8,6.9c-2.8,1.7-6.2,2.9-10,3.5c-3.8,0.7-7.9,1-12.3,1
			c-1.7,0-3.4,0-5.1-0.1c-1.7-0.1-3.4-0.2-5-0.3c-1.6-0.1-3.2-0.2-4.6-0.3c-1.4-0.1-2.6-0.3-3.6-0.5c-2-0.3-3.4-0.9-4.3-1.8
			c-0.8-0.9-1.3-2.4-1.3-4.7v-60.8c0-2.3,0.4-3.8,1.2-4.7c0.8-0.9,2.2-1.5,4.1-1.8c0.9-0.1,2-0.3,3.4-0.4c1.4-0.1,2.9-0.3,4.5-0.4
			c1.6-0.1,3.3-0.2,5-0.3c1.7-0.1,3.4-0.1,5-0.1c4.7,0,9,0.3,12.9,1c3.9,0.7,7.2,1.9,10,3.5c2.8,1.6,4.9,3.7,6.5,6.4
			c1.5,2.7,2.3,6,2.3,10v1.8c0,3.3-0.7,6.2-2.2,8.8c-1.5,2.6-3.5,4.6-6.2,5.9c2.7,1.3,4.8,3.3,6.4,5.8c1.6,2.5,2.5,5.5,2.5,9V242.8z
			 M232.8,211.1c0-2.7-1-4.8-3-6c-2-1.3-5.6-2-10.8-2c-0.4,0-1,0-1.7,0c-0.7,0-1.4,0-2.2,0c-0.8,0-1.5,0-2.2,0c-0.7,0-1.2,0-1.5,0
			v17.3h11.2c2,0,3.7-0.2,5-0.7c1.3-0.4,2.3-1,3.1-1.7c0.8-0.7,1.3-1.5,1.6-2.5c0.3-1,0.5-2,0.5-3V211.1z M233.2,241.3
			c0-2.4-0.8-4.5-2.3-6.3c-1.5-1.8-4.3-2.7-8.3-2.7h-11.2v18.7c0.4,0,1,0,1.8,0c0.8,0,1.6,0,2.4,0c0.8,0,1.6,0,2.4,0
			c0.8,0,1.3,0,1.6,0c5.1,0,8.7-0.8,10.7-2.3c2-1.5,3-3.7,3-6.5V241.3z"/>
	</g>
	<g>
		<rect x="301.9" y="297.3" fill="none" width="73.2" height="97.9"/>
		<path d="M357.5,381.2c-1.9,0.3-4.5,0.6-7.6,0.9c-3.2,0.3-7.8,0.5-13.7,0.5c-3.5,0-6.9-0.3-10.1-0.9c-3.2-0.6-6.1-1.7-8.6-3.4
			c-2.5-1.7-4.4-4.1-5.9-7.2c-1.5-3.1-2.2-7.2-2.2-12.2v-36.5c0-5,0.7-9,2.2-12.1c1.5-3.1,3.4-5.5,5.9-7.2c2.5-1.7,5.3-2.8,8.6-3.4
			c3.3-0.6,6.7-0.9,10.2-0.9c2.9,0,5.5,0.1,7.8,0.2c2.2,0.1,4.2,0.2,5.9,0.4c1.7,0.1,3.1,0.3,4.3,0.4c1.2,0.1,2.3,0.3,3.2,0.4
			c1.5,0.2,2.2,1,2.2,2.2v10.2c0,0.6-0.2,1.1-0.7,1.5c-0.4,0.4-1,0.7-1.5,0.7h-22.3c-2.6,0-4.4,0.5-5.4,1.6c-1.1,1.1-1.6,3-1.6,5.9
			v10h28.5c0.6,0,1.1,0.2,1.5,0.7s0.7,1,0.7,1.5v10.5c0,0.6-0.2,1.1-0.7,1.5c-0.4,0.4-1,0.7-1.5,0.7h-28.5V359
			c0,2.9,0.5,4.8,1.6,5.9c1.1,1.1,2.9,1.6,5.4,1.6h22.3c0.6,0,1.1,0.2,1.5,0.7c0.4,0.4,0.7,1,0.7,1.5v10.2
			C359.7,380.3,359,381,357.5,381.2z"/>
	</g>
</g>
<g id="Layer_2">
	<g>
	</g>
	<g>
	</g>
	<g>
	</g>
	<g>
	</g>
	<g>
	</g>
	<g>
	</g>
</g>
</svg>
